<svg id="visual" viewBox="0 0 960 540" width="960" height="540" xmlns="http://www.w3.org/2000/svg" xmlns:xlink="http://www.w3.org/1999/xlink" version="1.1"><rect x="0" y="0" width="960" height="540" fill="#0d1b2a"></rect><path d="M0 325L17.8 336.2C35.7 347.3 71.3 369.7 106.8 376.8C142.3 384 177.7 376 213.2 377.5C248.7 379 284.3 390 320 382.8C355.7 375.7 391.3 350.3 426.8 337C462.3 323.7 497.7 322.3 533.2 321.2C568.7 320 604.3 319 640 330.8C675.7 342.7 711.3 367.3 746.8 371.3C782.3 375.3 817.7 358.7 853.2 349.5C888.7 340.3 924.3 338.7 942.2 337.8L960 337L960 541L942.2 541C924.3 541 888.7 541 853.2 541C817.7 541 782.3 541 746.8 541C711.3 541 675.7 541 640 541C604.3 541 568.7 541 533.2 541C497.7 541 462.3 541 426.8 541C391.3 541 355.7 541 320 541C284.3 541 248.7 541 213.2 541C177.7 541 142.3 541 106.8 541C71.3 541 35.7 541 17.8 541L0 541Z" fill="#ffa5ab"></path><path d="M0 361L17.8 363C35.7 365 71.3 369 106.8 370.8C142.3 372.7 177.7 372.3 213.2 367.2C248.7 362 284.3 352 320 353C355.7 354 391.3 366 426.8 375.3C462.3 384.7 497.7 391.3 533.2 397.2C568.7 403 604.3 408 640 410C675.7 412 711.3 411 746.8 399.7C782.3 388.3 817.7 366.7 853.2 357.7C888.7 348.7 924.3 352.3 942.2 354.2L960 356L960 541L942.2 541C924.3 541 888.7 541 853.2 541C817.7 541 782.3 541 746.8 541C711.3 541 675.7 541 640 541C604.3 541 568.7 541 533.2 541C497.7 541 462.3 541 426.8 541C391.3 541 355.7 541 320 541C284.3 541 248.7 541 213.2 541C177.7 541 142.3 541 106.8 541C71.3 541 35.7 541 17.8 541L0 541Z" fill="#d7848d"></path><path d="M0 385L17.8 385.2C35.7 385.3 71.3 385.7 106.8 383.8C142.3 382 177.7 378 213.2 388.2C248.7 398.3 284.3 422.7 320 429.5C355.7 436.3 391.3 425.7 426.8 414.5C462.3 403.3 497.7 391.7 533.2 386C568.7 380.3 604.3 380.7 640 391.3C675.7 402 711.3 423 746.8 432.3C782.3 441.7 817.7 439.3 853.2 432.8C888.7 426.3 924.3 415.7 942.2 410.3L960 405L960 541L942.2 541C924.3 541 888.7 541 853.2 541C817.7 541 782.3 541 746.8 541C711.3 541 675.7 541 640 541C604.3 541 568.7 541 533.2 541C497.7 541 462.3 541 426.8 541C391.3 541 355.7 541 320 541C284.3 541 248.7 541 213.2 541C177.7 541 142.3 541 106.8 541C71.3 541 35.7 541 17.8 541L0 541Z" fill="#b1646f"></path><path d="M0 413L17.8 415C35.7 417 71.3 421 106.8 430.3C142.3 439.7 177.7 454.3 213.2 453.2C248.7 452 284.3 435 320 427.2C355.7 419.3 391.3 420.7 426.8 428.8C462.3 437 497.7 452 533.2 451.3C568.7 450.7 604.3 434.3 640 427.5C675.7 420.7 711.3 423.3 746.8 425C782.3 426.7 817.7 427.3 853.2 429C888.7 430.7 924.3 433.3 942.2 434.7L960 436L960 541L942.2 541C924.3 541 888.7 541 853.2 541C817.7 541 782.3 541 746.8 541C711.3 541 675.7 541 640 541C604.3 541 568.7 541 533.2 541C497.7 541 462.3 541 426.8 541C391.3 541 355.7 541 320 541C284.3 541 248.7 541 213.2 541C177.7 541 142.3 541 106.8 541C71.3 541 35.7 541 17.8 541L0 541Z" fill="#8b4553"></path><path d="M0 490L17.8 491.7C35.7 493.3 71.3 496.7 106.8 492C142.3 487.3 177.7 474.7 213.2 470.5C248.7 466.3 284.3 470.7 320 476.5C355.7 482.3 391.3 489.7 426.8 484.3C462.3 479 497.7 461 533.2 452.7C568.7 444.3 604.3 445.7 640 449.5C675.7 453.3 711.3 459.7 746.8 466.8C782.3 474 817.7 482 853.2 483.8C888.7 485.7 924.3 481.3 942.2 479.2L960 477L960 541L942.2 541C924.3 541 888.7 541 853.2 541C817.7 541 782.3 541 746.8 541C711.3 541 675.7 541 640 541C604.3 541 568.7 541 533.2 541C497.7 541 462.3 541 426.8 541C391.3 541 355.7 541 320 541C284.3 541 248.7 541 213.2 541C177.7 541 142.3 541 106.8 541C71.3 541 35.7 541 17.8 541L0 541Z" fill="#672739"></path><path d="M0 490L17.8 488.5C35.7 487 71.3 484 106.8 484.7C142.3 485.3 177.7 489.7 213.2 494.8C248.7 500 284.3 506 320 503.7C355.7 501.3 391.3 490.7 426.8 489C462.3 487.3 497.7 494.7 533.2 495C568.7 495.3 604.3 488.7 640 490.5C675.7 492.3 711.3 502.7 746.8 508C782.3 513.3 817.7 513.7 853.2 508.7C888.7 503.7 924.3 493.3 942.2 488.2L960 483L960 541L942.2 541C924.3 541 888.7 541 853.2 541C817.7 541 782.3 541 746.8 541C711.3 541 675.7 541 640 541C604.3 541 568.7 541 533.2 541C497.7 541 462.3 541 426.8 541C391.3 541 355.7 541 320 541C284.3 541 248.7 541 213.2 541C177.7 541 142.3 541 106.8 541C71.3 541 35.7 541 17.8 541L0 541Z" fill="#450920"></path></svg>